{
    "asset" : {
        "copyright" : "skmgrafix",
        "generator" : "Khronos glTF Blender I/O v1.2.75",
        "version" : "2.0"
    },
    "extensionsUsed" : [
        "KHR_texture_transform"
    ],
    "extensionsRequired" : [
        "KHR_texture_transform"
    ],
    "scene" : 0,
    "scenes" : [
        {
            "name" : "Scene",
            "nodes" : [
                0
            ]
        }
    ],
    "nodes" : [
        {
            "mesh" : 0,
            "name" : "Cylinder",
            "scale" : [
                1.49856436252594,
                1.3698612451553345,
                1.49856436252594
            ]
        }
    ],
    "materials" : [
        {
            "doubleSided" : true,
            "emissiveFactor" : [
                0,
                0,
                0
            ],
            "name" : "White plaster",
            "pbrMetallicRoughness" : {
                "baseColorTexture" : {
                    "index" : 0,
                    "texCoord" : 0
                },
                "metallicFactor" : 0,
                "roughnessFactor" : 0.5
            }
        },
        {
            "doubleSided" : true,
            "emissiveFactor" : [
                0,
                0,
                0
            ],
            "name" : "Bricks",
            "pbrMetallicRoughness" : {
                "baseColorTexture" : {
                    "extensions" : {
                        "KHR_texture_transform" : {
                            "offset" : [
                                -3.9847787721265897,
                                0.6513767976607014
                            ],
                            "rotation" : 1.483529806137085,
                            "scale" : [
                                4,
                                4
                            ]
                        }
                    },
                    "index" : 1,
                    "texCoord" : 0
                },
                "metallicFactor" : 0,
                "roughnessFactor" : 0.8999999761581421
            }
        },
        {
            "doubleSided" : true,
            "emissiveFactor" : [
                0,
                0,
                0
            ],
            "name" : "Metal",
            "pbrMetallicRoughness" : {
                "baseColorFactor" : [
                    0.001547499792650342,
                    0.001547499792650342,
                    0.001547499792650342,
                    1
                ],
                "metallicFactor" : 1,
                "roughnessFactor" : 0.15000000596046448
            }
        },
        {
            "doubleSided" : true,
            "emissiveFactor" : [
                0,
                0,
                0
            ],
            "name" : "Glass",
            "pbrMetallicRoughness" : {
                "baseColorFactor" : [
                    0.800000011920929,
                    0.800000011920929,
                    0.800000011920929,
                    1
                ],
                "metallicFactor" : 0,
                "roughnessFactor" : 0.09999999403953552
            }
        }
    ],
    "meshes" : [
        {
            "name" : "Cylinder",
            "primitives" : [
                {
                    "attributes" : {
                        "POSITION" : 0,
                        "NORMAL" : 1,
                        "TEXCOORD_0" : 2
                    },
                    "indices" : 3,
                    "material" : 0
                },
                {
                    "attributes" : {
                        "POSITION" : 4,
                        "NORMAL" : 5,
                        "TEXCOORD_0" : 6
                    },
                    "indices" : 7,
                    "material" : 1
                },
                {
                    "attributes" : {
                        "POSITION" : 8,
                        "NORMAL" : 9,
                        "TEXCOORD_0" : 10
                    },
                    "indices" : 11,
                    "material" : 2
                },
                {
                    "attributes" : {
                        "POSITION" : 12,
                        "NORMAL" : 13,
                        "TEXCOORD_0" : 14
                    },
                    "indices" : 15,
                    "material" : 3
                }
            ]
        }
    ],
    "textures" : [
        {
            "source" : 0
        },
        {
            "source" : 1
        }
    ],
    "images" : [
        {
            "mimeType" : "image/jpeg",
            "name" : "white_rough_plaster_diff_2k",
            "uri" : "textures/white_rough_plaster_diff_2k.jpg"
        },
        {
            "mimeType" : "image/jpeg",
            "name" : "castle_brick_broken_06_diff_2k",
            "uri" : "textures/castle_brick_broken_06_diff_2k.jpg"
        }
    ],
    "accessors" : [
        {
            "bufferView" : 0,
            "componentType" : 5126,
            "count" : 240,
            "max" : [
                2.193692684173584,
                20.276016235351562,
                2.193692684173584
            ],
            "min" : [
                -2.193692445755005,
                3.3000001907348633,
                -2.193692445755005
            ],
            "type" : "VEC3"
        },
        {
            "bufferView" : 1,
            "componentType" : 5126,
            "count" : 240,
            "type" : "VEC3"
        },
        {
            "bufferView" : 2,
            "componentType" : 5126,
            "count" : 240,
            "type" : "VEC2"
        },
        {
            "bufferView" : 3,
            "componentType" : 5123,
            "count" : 360,
            "type" : "SCALAR"
        },
        {
            "bufferView" : 4,
            "componentType" : 5126,
            "count" : 420,
            "max" : [
                3.075622320175171,
                19.124324798583984,
                3.075622081756592
            ],
            "min" : [
                -3.07562255859375,
                -0.003009796142578125,
                -3.07562255859375
            ],
            "type" : "VEC3"
        },
        {
            "bufferView" : 5,
            "componentType" : 5126,
            "count" : 420,
            "type" : "VEC3"
        },
        {
            "bufferView" : 6,
            "componentType" : 5126,
            "count" : 420,
            "type" : "VEC2"
        },
        {
            "bufferView" : 7,
            "componentType" : 5123,
            "count" : 642,
            "type" : "SCALAR"
        },
        {
            "bufferView" : 8,
            "componentType" : 5126,
            "count" : 252,
            "max" : [
                2.22115421295166,
                22.133726119995117,
                2.221153736114502
            ],
            "min" : [
                -2.2211530208587646,
                20.237321853637695,
                -2.221153736114502
            ],
            "type" : "VEC3"
        },
        {
            "bufferView" : 9,
            "componentType" : 5126,
            "count" : 252,
            "type" : "VEC3"
        },
        {
            "bufferView" : 10,
            "componentType" : 5126,
            "count" : 252,
            "type" : "VEC2"
        },
        {
            "bufferView" : 11,
            "componentType" : 5123,
            "count" : 360,
            "type" : "SCALAR"
        },
        {
            "bufferView" : 12,
            "componentType" : 5126,
            "count" : 48,
            "max" : [
                1.3200455904006958,
                20.29633903503418,
                1.320044755935669
            ],
            "min" : [
                -1.3200442790985107,
                19.124324798583984,
                -1.3200448751449585
            ],
            "type" : "VEC3"
        },
        {
            "bufferView" : 13,
            "componentType" : 5126,
            "count" : 48,
            "type" : "VEC3"
        },
        {
            "bufferView" : 14,
            "componentType" : 5126,
            "count" : 48,
            "type" : "VEC2"
        },
        {
            "bufferView" : 15,
            "componentType" : 5123,
            "count" : 72,
            "type" : "SCALAR"
        }
    ],
    "bufferViews" : [
        {
            "buffer" : 0,
            "byteLength" : 2880,
            "byteOffset" : 0
        },
        {
            "buffer" : 0,
            "byteLength" : 2880,
            "byteOffset" : 2880
        },
        {
            "buffer" : 0,
            "byteLength" : 1920,
            "byteOffset" : 5760
        },
        {
            "buffer" : 0,
            "byteLength" : 720,
            "byteOffset" : 7680
        },
        {
            "buffer" : 0,
            "byteLength" : 5040,
            "byteOffset" : 8400
        },
        {
            "buffer" : 0,
            "byteLength" : 5040,
            "byteOffset" : 13440
        },
        {
            "buffer" : 0,
            "byteLength" : 3360,
            "byteOffset" : 18480
        },
        {
            "buffer" : 0,
            "byteLength" : 1284,
            "byteOffset" : 21840
        },
        {
            "buffer" : 0,
            "byteLength" : 3024,
            "byteOffset" : 23124
        },
        {
            "buffer" : 0,
            "byteLength" : 3024,
            "byteOffset" : 26148
        },
        {
            "buffer" : 0,
            "byteLength" : 2016,
            "byteOffset" : 29172
        },
        {
            "buffer" : 0,
            "byteLength" : 720,
            "byteOffset" : 31188
        },
        {
            "buffer" : 0,
            "byteLength" : 576,
            "byteOffset" : 31908
        },
        {
            "buffer" : 0,
            "byteLength" : 576,
            "byteOffset" : 32484
        },
        {
            "buffer" : 0,
            "byteLength" : 384,
            "byteOffset" : 33060
        },
        {
            "buffer" : 0,
            "byteLength" : 144,
            "byteOffset" : 33444
        }
    ],
    "buffers" : [
        {
            "byteLength" : 33588,
            "uri" : "lighthouse.bin"
        }
    ]
}
